<?xml version="1.0" encoding="utf-8"?>
<!-- Generator: Adobe Illustrator 27.2.0, SVG Export Plug-In . SVG Version: 6.00 Build 0)  -->
<svg version="1.1" id="Capa_1" xmlns="http://www.w3.org/2000/svg" xmlns:xlink="http://www.w3.org/1999/xlink" x="0px" y="0px"
	 viewBox="0 0 413.1 413.1" style="enable-background:new 0 0 413.1 413.1;" xml:space="preserve">
<style type="text/css">
	.st0{fill:#39FF14;}
</style>
<rect width="413.1" height="413.1"/>
<g id="c">
	<path class="st0" d="M210.2,84.5h-7.3c-48.5,0-87.8,39.3-87.8,87.8v68.3c0,1.5,0,3.1,0.1,4.6c0.4,7.9,1.9,15.6,4.2,22.8
		c11.5,35.1,44.5,60.5,83.5,60.5h7.3c48.5,0,87.8-39.3,87.8-87.8v-68.3C298,123.9,258.7,84.5,210.2,84.5z M140.5,176.1
		c0-36.5,29.6-66.1,66.1-66.1c31.9,0,58.7,22.8,64.8,53c-4.9-1.4-9.9-2.2-15-2.2h0c-6.5-21.3-26.4-36.8-49.8-36.8
		c-28.7,0-52,23.4-52,52.1v24c-4.5,1.4-9.2,2.7-14,3.7L140.5,176.1L140.5,176.1z M231.8,165c-9.4,3-18,7.3-25.3,11.1
		c-7.5,3.9-16.8,9.2-27.7,14.3v-14.3c0-15.3,12.4-27.7,27.6-27.7C217.8,148.4,227.5,155.2,231.8,165L231.8,165z M272.6,202.1
		c-4.5-1.4-9.3-2.3-14-2.5c-0.8,0-1.5-0.1-2.3-0.1c-7.7,0-15.2,1.4-22.1,3.4c-10.4,3.1-19.7,7.7-27.6,11.8
		c-7.5,3.9-16.8,9.2-27.7,14.4c-7.4,3.5-15.6,6.9-24.4,9.7c0.3,7.5,2.1,14.7,5.3,21.1c8.5,17.2,26.2,29.1,46.7,29.1
		c28.7,0,52-23.4,52-52.1v-14.5c4.8,0.2,9.5,1.2,14,2.5v12c0,36.5-29.6,66.1-66.1,66.1c-26.8,0-49.9-16-60.3-39
		c-3-6.7-4.9-13.9-5.6-21.6c-0.2-1.8-0.2-3.7-0.2-5.5v-10.3c4.8-1,9.5-2.3,14-3.7c8.8-2.8,17-6.2,24.4-9.7
		c10.8-5.1,20.2-10.5,27.7-14.3c7.9-4.1,17.3-8.7,27.6-11.8c7-2.1,14.4-3.4,22.1-3.4c0.8,0,1.5,0,2.3,0.1c5.5,0.4,10.2,2.3,14,4.9
		c3.2,2.2,5.7,5,7.6,8c2,3.2,3.3,6.6,3.7,9.8C280.4,204.9,276.6,203.3,272.6,202.1L272.6,202.1z M234.2,225.8V237
		c0,15.3-12.4,27.7-27.6,27.7c-10.4,0-19.5-5.8-24.2-14.3c9.4-4.6,17.5-9.2,24.2-12.7C214.5,233.6,223.8,228.9,234.2,225.8
		L234.2,225.8z"/>
</g>
</svg>
