<?xml version="1.0" encoding="UTF-8"?><svg id="b" xmlns="http://www.w3.org/2000/svg" width="413.08" height="550.766" viewBox="0 0 413.08 550.766"><g id="c"><path d="m214.829,0h-16.578C88.762,0,0,88.762,0,198.251v154.263c0,3.458.094,6.906.27,10.317.914,17.879,4.197,35.125,9.543,51.445,25.956,79.253,100.521,136.49,188.438,136.49h16.578c109.501,0,198.251-88.762,198.251-198.251v-154.263C413.08,88.762,324.33,0,214.829,0ZM57.412,206.704c0-82.302,66.897-149.257,149.128-149.257,72.114,0,132.445,51.491,146.197,119.666-10.951-3.084-22.393-4.994-33.859-4.994h-.035c-14.784-48.021-59.534-83.017-112.303-83.017-64.775,0-117.474,52.758-117.474,117.603v54.176c-10.188,3.236-20.751,6.073-31.655,8.371v-62.547Zm206.212-25.195c-21.279,6.882-40.553,16.484-57.025,25.03-16.929,8.769-37.962,20.822-62.43,32.382v-32.217c0-34.457,27.985-62.5,62.371-62.5,25.453,0,47.399,15.358,57.084,37.306Zm92.056,83.908c-10.211-3.095-20.892-5.217-31.655-5.733-1.712-.082-3.435-.129-5.147-.129-17.469,0-34.222,3.06-49.955,7.738-23.377,6.952-44.492,17.445-62.324,26.684-16.929,8.769-37.962,20.822-62.43,32.393-16.788,7.949-35.207,15.663-55.02,21.936.598,17.035,4.842,33.155,11.982,47.611,19.157,38.912,59.218,65.748,105.41,65.748,64.786,0,117.485-52.758,117.485-117.603v-32.745c10.762.516,21.443,2.638,31.655,5.733v27.012c0,82.302-66.909,149.257-149.14,149.257-60.461,0-112.62-36.192-136.009-88.058-6.8-15.077-11.161-31.467-12.603-48.678-.339-4.127-.516-8.3-.516-12.521v-23.178c10.904-2.298,21.467-5.135,31.655-8.371,19.849-6.272,38.29-13.998,55.102-21.959,24.468-11.56,45.501-23.612,62.43-32.382,17.832-9.25,38.947-19.743,62.324-26.684,15.733-4.678,32.487-7.738,49.955-7.738,1.747,0,3.459.058,5.147.187,12.427.903,23.037,5.088,31.655,11.114,7.187,5.03,12.967,11.349,17.246,18.137,4.514,7.199,7.339,14.913,8.324,22.193-7.984-3.787-16.589-7.257-25.57-9.965Zm-86.757,53.508v25.136c0,34.457-27.985,62.5-62.383,62.5-23.471,0-43.953-13.061-54.599-32.311,21.173-10.375,39.545-20.81,54.657-28.641,17.832-9.239,38.947-19.731,62.324-26.684Z" fill="#019a59"/></g></svg>